# Max2Obj Version 4.0 Mar 10th, 2001
#
# object Plane01 to come ...
#
v  -12.252177 10.296900 13.630217
v  14.741582 0.000000 13.630217
v  -12.252177 0.000000 -15.606462
v  14.741582 10.296900 -15.606462
# 4 vertices

vt  0.000000 0.000000 0.000000
vt  1.000000 0.000000 0.000000
vt  0.000000 1.000000 0.000000
vt  1.000000 1.000000 0.000000
# 4 texture vertices

vn  0.017870 0.999704 0.016499
vn  0.338547 0.887515 0.312575
vn  -0.338547 0.887515 -0.312575
vn  -0.017870 0.999704 -0.016499
# 4 vertex normals

g Plane01
s 1
f 3/3/3 1/1/1 4/4/4
f 1/1/1 2/2/2 4/4/4
# 2 faces

g
